<svg version="1.1" xmlns="http://www.w3.org/2000/svg" xmlns:xlink="http://www.w3.org/1999/xlink" x="0px" y="0px" width="1021.3px" height="136.1px" viewBox="0 0 1021.3 136.1" style="enable-background:new 0 0 1021.3 136.1;" xml:space="preserve">

<style type="text/css">
	path {fill:#000000;}
	.st0{fill:#881719;}
</style>
		<path d="M692.6,40.6L692.6,40.6l7.7,17.4h-1.5l-2-4.5h-8.6l-1.9,4.5h-1.5L692.6,40.6z M696.4,52.4c-1.3-3-2.5-5.9-3.8-8.8
			c-1.3,3-2.5,5.8-3.8,8.8H696.4z"/>
		<path d="M705.5,52.7c-2-0.6-3.7-1.7-3.7-3.6c0-2,1.7-3.2,4.1-3.2c1.1,0,2.4,0.3,3.3,0.7v1.3c-0.9-0.5-2.1-0.8-3.2-0.8
			c-1.8,0-2.9,0.7-2.9,2c0,1.2,1,1.8,2.9,2.5c2.6,0.8,3.9,1.8,3.9,3.6c0,2.2-1.8,3.2-4.1,3.2c-1.4,0-2.9-0.3-3.9-0.8v-1.3
			c1.2,0.6,2.7,0.9,3.8,0.9c1.5,0,2.9-0.6,2.9-2C708.6,53.8,707.6,53.3,705.5,52.7z"/>
		<path d="M716,52.7c-2-0.6-3.7-1.7-3.7-3.6c0-2,1.7-3.2,4.1-3.2c1.1,0,2.4,0.3,3.3,0.7v1.3c-0.9-0.5-2.1-0.8-3.2-0.8
			c-1.8,0-2.9,0.7-2.9,2c0,1.2,1,1.8,2.9,2.5c2.6,0.8,3.9,1.8,3.9,3.6c0,2.2-1.8,3.2-4.1,3.2c-1.4,0-2.9-0.3-3.9-0.8v-1.3
			c1.2,0.6,2.7,0.9,3.8,0.9c1.5,0,2.9-0.6,2.9-2C719.1,53.8,718.1,53.3,716,52.7z"/>
		<path d="M735,52.1c0,3.6-2.5,6.2-6,6.2s-6-2.7-6-6.2c0-3.6,2.5-6.2,6-6.2S735,48.5,735,52.1z M733.6,52.1c0-2.9-1.9-5-4.6-5
			c-2.7,0-4.6,2.1-4.6,5c0,2.9,1.9,5,4.6,5C731.7,57.1,733.6,55,733.6,52.1z"/>
		<path d="M744.7,57.1c1.8,0,3-0.5,3.8-1.1v1.4c-0.9,0.5-2,1-3.9,1c-3.5,0-6-2.7-6-6.2c0-3.6,2.5-6.2,6-6.2c1.8,0,2.9,0.5,3.8,1v1.4
			c-0.9-0.5-2-1.1-3.8-1.1c-2.8,0-4.7,2.1-4.7,5C739.9,55,741.9,57.1,744.7,57.1z"/>
		<path d="M752.8,41.7c0.5,0,1,0.4,1,1c0,0.5-0.4,1-1,1c-0.6,0-1-0.4-1-1C751.8,42.1,752.2,41.7,752.8,41.7z M753.4,46.2v11.9h-1.3
			V46.2H753.4z"/>
		<path d="M757.9,46.8c0.7-0.4,2.2-0.9,4-0.9c3.2,0,4.7,1.5,4.7,4.5v7.7h-1.3v-1.6c0-0.6,0.1-1,0.1-1h0c0,0.1-1.5,3-4.5,3
			c-2.2,0-3.7-1.3-3.7-3.3c0-3,3.2-4.5,8.1-3.7v-0.9c0-2.5-1.4-3.4-3.5-3.4c-1.8,0-3.3,0.6-3.9,1V46.8z M765.3,52.4
			c-4.3-0.7-6.8,0.5-6.8,2.6c0,1.3,1,2.1,2.5,2.1C763.5,57.2,765.3,54.7,765.3,52.4z"/>
		<path d="M771.9,46.2v-3.6h1.3v3.6h3.9v1.1h-3.9v7.2c0,2,0.8,2.6,2,2.6c0.7,0,1.6-0.2,2.4-0.6v1.2c-0.5,0.3-1.5,0.6-2.5,0.6
			c-1.6,0-3.1-0.9-3.1-3.6v-7.5h-2.1v-1.1H771.9z"/>
		<path d="M781,41.7c0.5,0,1,0.4,1,1c0,0.5-0.4,1-1,1c-0.6,0-1-0.4-1-1C780,42.1,780.4,41.7,781,41.7z M781.6,46.2v11.9h-1.3V46.2
			H781.6z"/>
		<path d="M797.5,52.1c0,3.6-2.5,6.2-6,6.2s-6-2.7-6-6.2c0-3.6,2.5-6.2,6-6.2S797.5,48.5,797.5,52.1z M796.2,52.1c0-2.9-1.9-5-4.6-5
			s-4.6,2.1-4.6,5c0,2.9,1.9,5,4.6,5S796.2,55,796.2,52.1z"/>
		<path d="M802.7,46.2v2c0,0.5-0.1,1-0.1,1h0c0.4-1.1,2.1-3.2,4.9-3.2c3,0,4,1.8,4,4.7v7.5h-1.3v-7.1c0-2-0.3-3.8-2.8-3.8
			c-2.7,0-4.7,2.2-4.7,5.1v5.8h-1.3V46.2H802.7z"/>
		<path d="M832.7,58.1h-1.3v-1.6c0-0.5,0.1-0.9,0.1-0.9h0c-0.7,1.4-2.4,2.8-4.5,2.8c-3.2,0-5.5-2.7-5.5-6.2c0-3.6,2.3-6.2,5.5-6.2
			c2,0,3.8,1.3,4.4,2.7h0c0,0-0.1-0.4-0.1-1v-6.7h1.3V58.1z M822.8,52.1c0,2.8,1.7,5,4.2,5c2,0,4.3-1.5,4.3-5c0-3.5-2.3-5-4.3-5
			C824.5,47.1,822.8,49.2,822.8,52.1z"/>
		<path d="M847.6,51.4c0,0.3,0,0.5,0,0.7H838v0.2c0,2.9,1.9,4.8,4.7,4.8c1.6,0,3.2-0.5,4.4-1.3v1.3c-1,0.6-2.6,1.1-4.5,1.1
			c-3.5,0-6-2.5-6-6.2c0-3.6,2.5-6.2,5.7-6.2C845.7,45.9,847.6,48.5,847.6,51.4z M842.3,47.1c-2.5,0-4,2-4.2,4h8.1
			C846.2,49.1,844.9,47.1,842.3,47.1z"/>
		<path d="M853.9,52.7c-2-0.6-3.7-1.7-3.7-3.6c0-2,1.7-3.2,4.1-3.2c1.1,0,2.4,0.3,3.3,0.7v1.3c-0.9-0.5-2.1-0.8-3.2-0.8
			c-1.8,0-2.9,0.7-2.9,2c0,1.2,1,1.8,2.9,2.5c2.6,0.8,3.9,1.8,3.9,3.6c0,2.2-1.8,3.2-4.1,3.2c-1.4,0-2.9-0.3-3.9-0.8v-1.3
			c1.2,0.6,2.7,0.9,3.8,0.9c1.5,0,2.9-0.6,2.9-2C857.1,53.8,856.1,53.3,853.9,52.7z"/>
		<path d="M687.2,74.7h1.3v1.5c0,0.5-0.1,1-0.1,1h0c0.7-1.4,2.4-2.8,4.5-2.8c3.2,0,5.5,2.7,5.5,6.2c0,3.6-2.3,6.2-5.5,6.2
			c-2,0-3.8-1.4-4.4-2.8h0c0,0,0.1,0.4,0.1,1v6.7h-1.3V74.7z M697.1,80.7c0-2.8-1.7-5-4.2-5c-2,0-4.3,1.5-4.3,5c0,3.5,2.3,5,4.3,5
			C695.4,85.7,697.1,83.6,697.1,80.7z"/>
		<path d="M702.1,74.7h1.3v2c0,0.5-0.1,0.9-0.1,1h0c0.6-1.8,2-3.2,3.8-3.2c0.3,0,0.7,0.1,0.7,0.1v1.3c0,0-0.3,0-0.6,0
			c-2.7,0-3.8,3.2-3.8,5.6v5.3h-1.3V74.7z"/>
		<path d="M721.9,80.7c0,3.6-2.5,6.2-6,6.2s-6-2.7-6-6.2c0-3.6,2.5-6.2,6-6.2S721.9,77.1,721.9,80.7z M720.6,80.7c0-2.9-1.9-5-4.6-5
			c-2.7,0-4.6,2.1-4.6,5c0,2.9,1.9,5,4.6,5C718.7,85.7,720.6,83.6,720.6,80.7z"/>
		<path d="M726.2,74.7v-1.5c0-2.5,1.5-4,3.9-4c0.6,0,1.2,0.1,1.4,0.1v1.2c-0.2,0-0.7-0.1-1.2-0.1c-1.8,0-2.7,1-2.7,2.8v1.5h3.4v1.1
			h-3.4v10.8h-1.3V75.8h-1.9v-1.1H726.2z"/>
		<path d="M743.6,80c0,0.3,0,0.5,0,0.7H734v0.2c0,2.9,1.9,4.8,4.7,4.8c1.6,0,3.2-0.5,4.4-1.3v1.3c-1,0.6-2.6,1.1-4.5,1.1
			c-3.5,0-6-2.5-6-6.2c0-3.6,2.5-6.2,5.7-6.2C741.7,74.4,743.6,77.1,743.6,80z M738.3,75.7c-2.5,0-4,2-4.2,4h8.1
			C742.2,77.6,740.8,75.7,738.3,75.7z"/>
		<path d="M749.9,81.2c-2-0.6-3.7-1.7-3.7-3.6c0-2,1.7-3.2,4.1-3.2c1.1,0,2.4,0.3,3.3,0.7v1.3c-0.9-0.5-2.1-0.8-3.2-0.8
			c-1.8,0-2.9,0.7-2.9,2c0,1.2,1,1.8,2.9,2.5c2.6,0.8,3.9,1.8,3.9,3.6c0,2.2-1.8,3.2-4.1,3.2c-1.4,0-2.9-0.3-3.9-0.8v-1.3
			c1.2,0.6,2.7,0.9,3.8,0.9c1.5,0,2.9-0.6,2.9-2C753,82.4,752,81.9,749.9,81.2z"/>
		<path d="M760.5,81.2c-2-0.6-3.7-1.7-3.7-3.6c0-2,1.7-3.2,4.1-3.2c1.1,0,2.4,0.3,3.3,0.7v1.3c-0.9-0.5-2.1-0.8-3.2-0.8
			c-1.8,0-2.9,0.7-2.9,2c0,1.2,1,1.8,2.9,2.5c2.6,0.8,3.9,1.8,3.9,3.6c0,2.2-1.8,3.2-4.1,3.2c-1.4,0-2.9-0.3-3.9-0.8v-1.3
			c1.2,0.6,2.7,0.9,3.8,0.9c1.5,0,2.9-0.6,2.9-2C763.6,82.4,762.6,81.9,760.5,81.2z"/>
		<path d="M769.2,70.3c0.5,0,1,0.4,1,1c0,0.5-0.4,1-1,1c-0.6,0-1-0.4-1-1C768.2,70.7,768.6,70.3,769.2,70.3z M769.8,74.7v11.9h-1.3
			V74.7H769.8z"/>
		<path d="M785.7,80.7c0,3.6-2.5,6.2-6,6.2s-6-2.7-6-6.2c0-3.6,2.5-6.2,6-6.2S785.7,77.1,785.7,80.7z M784.4,80.7c0-2.9-1.9-5-4.6-5
			c-2.7,0-4.6,2.1-4.6,5c0,2.9,1.9,5,4.6,5C782.5,85.7,784.4,83.6,784.4,80.7z"/>
		<path d="M791,74.7v2c0,0.5-0.1,1-0.1,1h0c0.4-1.1,2.1-3.2,4.9-3.2c3,0,4,1.8,4,4.7v7.5h-1.3v-7.1c0-2-0.3-3.8-2.8-3.8
			c-2.7,0-4.7,2.2-4.7,5.1v5.8h-1.3V74.7H791z"/>
		<path d="M805.7,74.7v2c0,0.5-0.1,1-0.1,1h0c0.4-1.1,2.1-3.2,4.9-3.2c3,0,4,1.8,4,4.7v7.5h-1.3v-7.1c0-2-0.3-3.8-2.8-3.8
			c-2.7,0-4.7,2.2-4.7,5.1v5.8h-1.3V74.7H805.7z"/>
		<path d="M829,80c0,0.3,0,0.5,0,0.7h-9.5v0.2c0,2.9,1.9,4.8,4.7,4.8c1.6,0,3.2-0.5,4.4-1.3v1.3c-1,0.6-2.6,1.1-4.5,1.1
			c-3.5,0-6-2.5-6-6.2c0-3.6,2.5-6.2,5.7-6.2C827.1,74.4,829,77.1,829,80z M823.7,75.7c-2.5,0-4,2-4.2,4h8.1
			C827.6,77.6,826.2,75.7,823.7,75.7z"/>
		<path d="M832.8,69.5h1.3v14.1c0,1.4,0.4,2.1,1.5,2.1c0.5,0,0.9-0.1,1-0.1v1.2c0,0-0.5,0.1-1.2,0.1c-1.6,0-2.6-0.9-2.6-3.1V69.5z"
			/>
		<path d="M842.3,81.2c-2-0.6-3.7-1.7-3.7-3.6c0-2,1.7-3.2,4.1-3.2c1.1,0,2.4,0.3,3.3,0.7v1.3c-0.9-0.5-2.1-0.8-3.2-0.8
			c-1.8,0-2.9,0.7-2.9,2c0,1.2,1,1.8,2.9,2.5c2.6,0.8,3.9,1.8,3.9,3.6c0,2.2-1.8,3.2-4.1,3.2c-1.4,0-2.9-0.3-3.9-0.8v-1.3
			c1.2,0.6,2.7,0.9,3.8,0.9c1.5,0,2.9-0.6,2.9-2C845.4,82.4,844.4,81.9,842.3,81.2z"/>
		<path d="M866.9,86.6h-1.3V85c0-0.5,0.1-0.9,0.1-0.9h0c-0.7,1.4-2.4,2.8-4.5,2.8c-3.2,0-5.5-2.7-5.5-6.2c0-3.6,2.3-6.2,5.5-6.2
			c2,0,3.8,1.3,4.4,2.7h0c0,0-0.1-0.4-0.1-1v-6.7h1.3V86.6z M857,80.7c0,2.8,1.7,5,4.2,5c2,0,4.3-1.5,4.3-5c0-3.5-2.3-5-4.3-5
			C858.7,75.7,857,77.8,857,80.7z"/>
		<path d="M881.8,80c0,0.3,0,0.5,0,0.7h-9.5v0.2c0,2.9,1.9,4.8,4.7,4.8c1.6,0,3.2-0.5,4.4-1.3v1.3c-1,0.6-2.6,1.1-4.5,1.1
			c-3.5,0-6-2.5-6-6.2c0-3.6,2.5-6.2,5.7-6.2C879.9,74.4,881.8,77.1,881.8,80z M876.5,75.7c-2.5,0-4,2-4.2,4h8.1
			C880.4,77.6,879,75.7,876.5,75.7z"/>
		<path d="M687.2,98.1h1.3v14.1c0,1.4,0.4,2.1,1.5,2.1c0.5,0,0.9-0.1,1-0.1v1.2c0,0-0.5,0.1-1.2,0.1c-1.6,0-2.6-0.9-2.6-3.1V98.1z"
			/>
		<path d="M693.2,103h-1.1l1.8-6.2h1.6L693.2,103z"/>
		<path d="M708.1,108.6c0,0.3,0,0.5,0,0.7h-9.5v0.2c0,2.9,1.9,4.8,4.7,4.8c1.6,0,3.2-0.5,4.4-1.3v1.3c-1,0.6-2.6,1.1-4.5,1.1
			c-3.5,0-6-2.5-6-6.2c0-3.6,2.5-6.2,5.7-6.2C706.2,103,708.1,105.7,708.1,108.6z M702.8,104.2c-2.5,0-4,2-4.2,4h8.1
			C706.7,106.2,705.3,104.2,702.8,104.2z M704.3,97.8h1.8l-2.9,4h-1.3L704.3,97.8z"/>
		<path d="M722.5,115.2h-1.3v-1.6c0-0.5,0.1-0.9,0.1-0.9h0c-0.7,1.4-2.4,2.8-4.5,2.8c-3.2,0-5.5-2.7-5.5-6.2c0-3.6,2.3-6.2,5.5-6.2
			c2,0,3.8,1.3,4.4,2.7h0c0,0-0.1-0.4-0.1-1v-6.7h1.3V115.2z M712.6,109.3c0,2.8,1.7,5,4.2,5c2,0,4.3-1.5,4.3-5c0-3.5-2.3-5-4.3-5
			C714.3,104.2,712.6,106.3,712.6,109.3z"/>
		<path d="M728.2,98.8c0.5,0,1,0.4,1,1c0,0.5-0.4,1-1,1c-0.6,0-1-0.4-1-1C727.2,99.3,727.6,98.8,728.2,98.8z M728.8,103.3v11.9h-1.3
			v-11.9H728.8z"/>
		<path d="M734.1,103.3v-3.6h1.3v3.6h3.9v1.1h-3.9v7.2c0,2,0.8,2.6,2,2.6c0.7,0,1.6-0.2,2.4-0.6v1.2c-0.5,0.3-1.5,0.6-2.5,0.6
			c-1.6,0-3.1-0.9-3.1-3.6v-7.5H732v-1.1H734.1z"/>
		<path d="M743.2,98.8c0.5,0,1,0.4,1,1c0,0.5-0.4,1-1,1c-0.6,0-1-0.4-1-1C742.2,99.3,742.6,98.8,743.2,98.8z M743.8,103.3v11.9h-1.3
			v-11.9H743.8z"/>
		<path d="M759.7,109.3c0,3.6-2.5,6.2-6,6.2s-6-2.7-6-6.2c0-3.6,2.5-6.2,6-6.2S759.7,105.7,759.7,109.3z M758.4,109.3
			c0-2.9-1.9-5-4.6-5c-2.7,0-4.6,2.1-4.6,5c0,2.9,1.9,5,4.6,5C756.4,114.3,758.4,112.2,758.4,109.3z"/>
		<path d="M764.9,103.3v2c0,0.5-0.1,1-0.1,1h0c0.4-1.1,2.1-3.2,4.9-3.2c3,0,4,1.8,4,4.7v7.5h-1.3v-7.1c0-2-0.3-3.8-2.8-3.8
			c-2.7,0-4.7,2.2-4.7,5.1v5.8h-1.3v-11.9H764.9z"/>
		<path d="M786,103.3v2c0,0.5-0.1,1-0.1,1h0c0.6-1.8,2.6-3.2,4.5-3.2c2.2,0,3.4,1.1,3.7,3.1h0c0.7-1.6,2.4-3.1,4.4-3.1
			c3,0,4,1.8,4,4.7v7.5h-1.3v-7.1c0-2.1-0.4-3.8-2.8-3.8c-2.7,0-4.2,2.8-4.2,5.2v5.7h-1.3V108c0-1.9-0.3-3.8-2.7-3.8
			c-2.7,0-4.3,2.7-4.3,5.2v5.7h-1.3v-11.9H786z"/>
		<path d="M806.9,103.3h1.3v7.1c0,2,0.3,3.8,2.7,3.8c2.8,0,4.6-2.4,4.6-5.1v-5.8h1.3v11.9h-1.3l0-2c0-0.5,0.1-1,0.1-1h0
			c-0.4,1.1-2,3.2-4.8,3.2c-2.9,0-4-1.6-4-4.7V103.3z"/>
		<path d="M824.4,109.8c-2-0.6-3.7-1.7-3.7-3.6c0-2,1.7-3.2,4.1-3.2c1.1,0,2.4,0.3,3.3,0.7v1.3c-0.9-0.5-2.1-0.8-3.2-0.8
			c-1.8,0-2.9,0.7-2.9,2c0,1.2,1,1.8,2.9,2.5c2.6,0.8,3.9,1.8,3.9,3.6c0,2.2-1.8,3.2-4.1,3.2c-1.4,0-2.9-0.3-3.9-0.8v-1.3
			c1.2,0.6,2.7,0.9,3.8,0.9c1.5,0,2.9-0.6,2.9-2C827.5,111,826.5,110.4,824.4,109.8z"/>
		<path d="M833.1,98.8c0.5,0,1,0.4,1,1c0,0.5-0.4,1-1,1c-0.6,0-1-0.4-1-1C832.1,99.3,832.5,98.8,833.1,98.8z M833.8,103.3v11.9h-1.3
			v-11.9H833.8z"/>
		<path d="M844,114.3c1.8,0,3-0.5,3.8-1.1v1.4c-0.9,0.5-2,1-3.9,1c-3.5,0-6-2.7-6-6.2c0-3.6,2.5-6.2,6-6.2c1.8,0,2.9,0.5,3.8,1v1.4
			c-0.9-0.5-2-1.1-3.8-1.1c-2.8,0-4.7,2.1-4.7,5C839.3,112.1,841.2,114.3,844,114.3z"/>
		<path d="M851.6,103.9c0.7-0.4,2.2-0.9,4-0.9c3.2,0,4.7,1.5,4.7,4.5v7.7H859v-1.6c0-0.6,0.1-1,0.1-1h0c0,0.1-1.5,3-4.5,3
			c-2.2,0-3.7-1.3-3.7-3.3c0-3,3.2-4.5,8.1-3.7v-0.9c0-2.5-1.4-3.4-3.5-3.4c-1.8,0-3.3,0.6-3.9,1V103.9z M859,109.6
			c-4.3-0.7-6.8,0.5-6.8,2.6c0,1.3,1,2.1,2.5,2.1C857.1,114.3,859,111.8,859,109.6z"/>
		<path d="M865.1,98.1h1.3v14.1c0,1.4,0.4,2.1,1.5,2.1c0.5,0,0.9-0.1,1-0.1v1.2c0,0-0.5,0.1-1.2,0.1c-1.6,0-2.6-0.9-2.6-3.1V98.1z"
			/>
		<path d="M881.9,108.6c0,0.3,0,0.5,0,0.7h-9.5v0.2c0,2.9,1.9,4.8,4.7,4.8c1.6,0,3.2-0.5,4.4-1.3v1.3c-1,0.6-2.6,1.1-4.5,1.1
			c-3.5,0-6-2.5-6-6.2c0-3.6,2.5-6.2,5.7-6.2C880.1,103,881.9,105.7,881.9,108.6z M876.7,104.2c-2.5,0-4,2-4.2,4h8.1
			C880.6,106.2,879.2,104.2,876.7,104.2z"/>
	<path class="st0" d="M1020.7,111.8l-47.8-85.4c-0.1-0.2-0.4-0.4-0.6-0.6l10.2,75.4l-0.1,0c0.1,0.8,0.2,1.5,0.2,2.3
		c0,6.9-5.6,12.5-12.5,12.5c-6.9,0-12.5-5.6-12.5-12.5c0-6.9,5.6-12.5,12.5-12.5c2.5,0,4.9,0.8,6.8,2.1L968,26
		c-0.1,0.1-0.3,0.2-0.4,0.4l-47.8,85.4c-0.1,0.2-0.7,1.6-0.6,2.2c0.2,1.4,1.6,2.1,2.8,2.7c0.1,0.1,14.8,7.6,18,17.6
		c0.3,1,1.1,1.6,2,1.7v0.1h56.2V136c1-0.1,1.8-0.8,2.1-1.8c3.2-9.9,17.9-17.5,18-17.6c1.5-0.6,2.7-1.2,2.8-2.7
		C1021.3,113.5,1020.8,112,1020.7,111.8z"/>

		<path d="M645.2,45.7c0-0.3-0.1-0.6-0.2-0.9c-0.3-0.6-0.7-1.1-1.3-1.3c-0.3-0.1-0.6-0.2-0.9-0.2c0,0-0.1,0-0.1,0
			c-0.1,0-0.1,0-0.2,0c-0.3,0-0.5,0.1-0.8,0.2c-0.3,0.1-0.5,0.3-0.7,0.5c0,0-0.1,0-0.1,0.1l-32,32l-32-32c0,0-0.1-0.1-0.1-0.1
			c-0.2-0.2-0.4-0.3-0.7-0.4c-0.3-0.1-0.5-0.2-0.8-0.2c0,0-0.1,0-0.1,0c-0.1,0-0.1,0-0.1,0c-0.3,0-0.5,0.1-0.8,0.2
			c-0.6,0.3-1.1,0.7-1.3,1.3c-0.1,0.3-0.2,0.6-0.2,0.9c0,0,0,0,0,0v67.4c0,1.4,1.1,2.5,2.5,2.5c1.4,0,2.5-1.1,2.5-2.5V51.6
			l29.6,29.5c0.5,0.5,1.1,0.7,1.7,0.7c0.6,0,1.3-0.2,1.7-0.7l29.6-29.5v61.5c0,1.4,1.1,2.5,2.5,2.5c1.4,0,2.5-1.1,2.5-2.5
			L645.2,45.7C645.2,45.7,645.2,45.7,645.2,45.7z"/>
		<path d="M473.5,43.2c-16.5,0-29.9,13.2-30.3,29.6c0,0.1,0,0.1,0,0.2v59.2c0,1.4,1.1,2.5,2.5,2.5c1.4,0,2.5-1.1,2.5-2.5V73.6
			c0-14,11.4-25.5,25.4-25.5c14,0,25.5,11.4,25.5,25.5c0,14-11.4,25.5-25.5,25.5c-1.4,0-2.5,1.1-2.5,2.5c0,1.4,1.1,2.5,2.5,2.5
			c16.8,0,30.4-13.6,30.4-30.4C503.9,56.9,490.2,43.2,473.5,43.2z"/>
		<path d="M556.9,48.2c1.4,0,2.5-1.1,2.5-2.5c0-1.4-1.1-2.5-2.5-2.5h-37.5c-1.4,0-2.5,1.1-2.5,2.5v67.4c0,1.4,1.1,2.5,2.5,2.5h37.5
			c1.4,0,2.5-1.1,2.5-2.5c0-1.4-1.1-2.5-2.5-2.5h-35V81.9h35c1.4,0,2.5-1.1,2.5-2.5c0-1.4-1.1-2.5-2.5-2.5h-35V48.2H556.9z"/>
		<path d="M400.5,44.7c-0.1-0.1-0.1-0.2-0.2-0.3c-0.1-0.1-0.2-0.3-0.3-0.4c-0.1-0.1-0.3-0.2-0.4-0.3c-0.1-0.1-0.2-0.2-0.3-0.2
			c0,0-0.1,0-0.1,0c-0.2-0.1-0.3-0.1-0.5-0.1c-0.1,0-0.3-0.1-0.4-0.1c-0.1,0-0.3,0-0.4,0.1c-0.2,0-0.3,0.1-0.5,0.1c0,0-0.1,0-0.1,0
			c-0.1,0.1-0.2,0.1-0.3,0.2c-0.1,0.1-0.3,0.2-0.4,0.3c-0.1,0.1-0.2,0.3-0.3,0.4c-0.1,0.1-0.2,0.2-0.2,0.3l-30.6,67.5
			c-0.6,1.2,0,2.7,1.2,3.3c0.3,0.2,0.7,0.2,1,0.2c0.9,0,1.8-0.5,2.2-1.4l9.3-20.5h38.1l9.3,20.5c0.4,0.9,1.3,1.4,2.3,1.4
			c0.3,0,0.7-0.1,1-0.2c1.2-0.6,1.8-2,1.2-3.3L400.5,44.7z M381.5,88.7l16.8-37l16.8,37H381.5z"/>

		<path d="M0,27.9V1.9h2.1v24.2h11.7v1.8H0z"/>
		<path d="M33.2,17.9c0,0.4,0,0.8,0,1.1H18.8v0.3c0,4.3,2.9,7.3,7.1,7.3c2.4,0,4.9-0.7,6.7-1.9v2c-1.6,0.9-4,1.7-6.7,1.7
			c-5.3,0-9.1-3.8-9.1-9.4c0-5.4,3.7-9.4,8.6-9.4C30.4,9.4,33.2,13.4,33.2,17.9z M25.2,11.3c-3.7,0-6,3-6.4,6.1h12.3
			C31.1,14.3,29.1,11.3,25.2,11.3z"/>
		<path d="M60.2,28.3c-7.7,0-13.5-5.9-13.5-13.4c0-7.5,5.8-13.4,13.5-13.4c3.6,0,6.4,1.1,8,2v2.1c-2.1-1-4.8-2.1-8-2.1
			c-6.7,0-11.4,5-11.4,11.4c0,6.5,4.7,11.4,11.3,11.4c2.3,0,4.6-0.5,6.3-1.2v-8.4h2v9.6C66.5,27.4,63.6,28.3,60.2,28.3z"/>
		<path d="M94,19.1c0,5.8-3.5,9.2-9.4,9.2c-5.9,0-9.5-3.4-9.5-9.2V1.9h2.1V19c0,4.6,2.8,7.3,7.4,7.3s7.4-2.7,7.4-7.3V1.9H94V19.1z"
			/>
		<path d="M102.4,27.9V1.9h2.1v25.9H102.4z"/>
		<path d="M113.5,27.9V1.9h6.9c7.2,0,13.5,4.8,13.5,13c0,8.2-6.3,13-13.3,13H113.5z M115.6,3.7v22.4h5c6,0,11.2-4.2,11.2-11.2
			c0-7-5.1-11.2-11.4-11.2H115.6z"/>
		<path d="M141,27.9V1.9h15.4v1.8h-13.3v10.2h11.3v1.8h-11.3v10.5H157v1.8H141z"/>
		<path d="M172,27.9V1.9h6.9c7.2,0,13.5,4.8,13.5,13c0,8.2-6.3,13-13.3,13H172z M174.1,3.7v22.4h5c6,0,11.2-4.2,11.2-11.2
			c0-7-5.1-11.2-11.4-11.2H174.1z"/>
		<path d="M197.9,9.4h-1.7L199,0h2.4L197.9,9.4z"/>
		<path d="M225.1,19.1c0,5.8-3.5,9.2-9.4,9.2c-5.9,0-9.5-3.4-9.5-9.2V1.9h2.1V19c0,4.6,2.8,7.3,7.4,7.3s7.4-2.7,7.4-7.3V1.9h2.1
			V19.1z"/>
		<path d="M240.4,3.7v24.2h-2.1V3.7h-8.1V1.9h18.2v1.8H240.4z"/>
		<path d="M254.4,27.9V1.9h2.1v25.9H254.4z"/>
		<path d="M265.6,27.9V1.9h2.1v24.2h11.7v1.8H265.6z"/>
		<path d="M285.3,27.9V1.9h2.1v25.9H285.3z"/>
		<path d="M294.2,26.7v-2.1c1.6,0.8,4.2,1.8,7.2,1.8c3.5,0,6.2-1.7,6.2-4.5c0-2.8-1.4-4.4-6.2-6.1c-5.3-1.9-7.2-4.2-7.2-7.7
			c0-4.2,3.7-6.5,8-6.5c2.6,0,4.8,0.7,6.2,1.4v2.1c-1.4-0.6-3.9-1.5-6.1-1.5c-3.5,0-6,1.8-6,4.5c0,2.5,1.2,4.3,6.1,6
			c5.4,1.9,7.3,4,7.3,7.7c0,4.1-3.5,6.6-8.3,6.6C298.5,28.3,295.8,27.5,294.2,26.7z"/>
		<path d="M324.5,1.5L324.5,1.5l11.7,26.3h-2.2l-3-6.7h-13l-2.9,6.7h-2.2L324.5,1.5z M330.2,19.4c-2-4.5-3.9-8.9-5.7-13.4
			c-1.9,4.5-3.8,8.8-5.8,13.4H330.2z"/>
		<path d="M346.2,3.7v24.2h-2.1V3.7h-8.1V1.9h18.2v1.8H346.2z"/>
		<path d="M360.2,27.9V1.9h2.1v25.9H360.2z"/>
		<path d="M382.5,1.5c7.5,0,13.1,6,13.1,13.4c0,7.5-5.6,13.4-13.1,13.4s-13.1-5.9-13.1-13.4C369.4,7.5,375,1.5,382.5,1.5z
			 M382.5,26.3c6.4,0,10.9-5,10.9-11.4c0-6.4-4.5-11.4-10.9-11.4c-6.4,0-11,5-11,11.4C371.5,21.3,376,26.3,382.5,26.3z"/>
		<path d="M405.4,7.8c-0.3-0.3-0.6-0.6-0.7-0.9c0,0.4,0.1,1,0.1,1.7v19.3h-2.1V1.5h0L419.6,22c0.3,0.3,0.6,0.7,0.7,0.9
			c0-0.4,0-1,0-1.7V2h2.1v26.3h0L405.4,7.8z"/>
		<path d="M0,71.1V45.1h6.9c7.2,0,13.5,4.8,13.5,13c0,8.2-6.3,13-13.3,13H0z M2.1,46.9v22.4h5c6,0,11.2-4.2,11.2-11.2
			c0-7-5.1-11.2-11.4-11.2H2.1z"/>
		<path d="M27.5,71.1V45.1h15.4v1.8H29.6v10.2h11.3v1.8H29.6v10.5h13.8v1.8H27.5z"/>
		<path d="M58.4,71.1V45.1h2.1v24.2h11.7v1.8H58.4z"/>
		<path d="M86.3,44.7L86.3,44.7l11.7,26.3h-2.2l-3-6.7h-13l-2.9,6.7h-2.2L86.3,44.7z M92,62.6c-2-4.5-3.9-8.9-5.7-13.4
			c-1.9,4.5-3.8,8.8-5.8,13.4H92z"/>
		<path d="M114.4,51.7l-0.8-1.2c0.1,0.7,0.1,1.3,0.1,1.9v18.6h-2.1V44.7h0L123,60.5l11.3-15.8h0v26.3h-2.1V52.5c0-0.6,0-1.2,0-1.9
			c-0.5,0.8-1.4,2.1-2.1,3.1L123,63.8L114.4,51.7z"/>
		<path d="M161.6,62.3c0,5.8-3.5,9.2-9.4,9.2c-5.9,0-9.5-3.4-9.5-9.2V45.1h2.1v17.1c0,4.6,2.8,7.3,7.4,7.3s7.4-2.7,7.4-7.3V45.1h2.1
			V62.3z"/>
		<path d="M167.8,69.9v-2.1c1.6,0.8,4.2,1.8,7.2,1.8c3.5,0,6.2-1.7,6.2-4.5c0-2.8-1.4-4.4-6.2-6.1c-5.3-1.9-7.2-4.2-7.2-7.7
			c0-4.2,3.7-6.5,8-6.5c2.6,0,4.8,0.7,6.2,1.4v2.1c-1.4-0.6-3.9-1.5-6.1-1.5c-3.5,0-6,1.8-6,4.5c0,2.5,1.2,4.3,6.1,6
			c5.4,1.9,7.3,4,7.3,7.7c0,4.1-3.5,6.6-8.3,6.6C172,71.5,169.4,70.7,167.8,69.9z"/>
		<path d="M189.9,71.1V45.1h2.1v25.9H189.9z"/>
		<path d="M212.4,44.7c7.5,0,13.1,6,13.1,13.4c0,6.9-4.8,12.5-11.4,13.3c3.3,2.8,7.7,4.8,11.9,4.8c1.2,0,2.4-0.1,3.3-0.4v1.9
			c-0.9,0.3-2.1,0.4-3.5,0.4c-4.8,0-10.4-2.7-14.4-6.7c-7-0.5-12.1-6.2-12.1-13.4C199.3,50.7,204.9,44.7,212.4,44.7z M212.4,69.5
			c6.4,0,10.9-5,10.9-11.4c0-6.4-4.5-11.4-10.9-11.4c-6.4,0-11,5-11,11.4C201.4,64.5,206,69.5,212.4,69.5z"/>
		<path d="M250.9,62.3c0,5.8-3.5,9.2-9.4,9.2c-5.9,0-9.5-3.4-9.5-9.2V45.1h2.1v17.1c0,4.6,2.8,7.3,7.4,7.3s7.4-2.7,7.4-7.3V45.1h2.1
			V62.3z"/>
		<path d="M259.3,71.1V45.1h15.4v1.8h-13.3v10.2h11.3v1.8h-11.3v10.5h13.8v1.8H259.3z"/>
		<path d="M305.6,71.1h-1.9v-2.4c0-0.8,0.1-1.4,0.1-1.4h-0.1c-1,2.2-3.6,4.2-6.7,4.2c-4.8,0-8.3-4.1-8.3-9.4c0-5.5,3.5-9.4,8.3-9.4
			c3.1,0,5.7,2,6.7,4.1h0.1c0,0-0.1-0.6-0.1-1.4V45.1h2V71.1z M290.6,62.1c0,4.3,2.5,7.6,6.4,7.6c3.1,0,6.6-2.3,6.6-7.6
			c0-5.3-3.5-7.6-6.6-7.6C293.1,54.5,290.6,57.7,290.6,62.1z"/>
		<path d="M328.1,61.1c0,0.4,0,0.8,0,1.1h-14.4v0.3c0,4.3,2.9,7.3,7.1,7.3c2.4,0,4.9-0.7,6.7-1.9v2c-1.6,0.9-4,1.7-6.7,1.7
			c-5.3,0-9.1-3.8-9.1-9.4c0-5.4,3.7-9.4,8.6-9.4C325.3,52.6,328.1,56.6,328.1,61.1z M320.1,54.5c-3.7,0-6,3-6.4,6.1H326
			C326,57.5,324,54.5,320.1,54.5z"/>
		<path d="M343.5,45.1h2v21.3c0,2.2,0.6,3.2,2.3,3.2c0.8,0,1.4-0.1,1.5-0.2v1.8c-0.1,0-0.7,0.2-1.8,0.2c-2.4,0-4-1.3-4-4.6V45.1z"/>
		<path d="M352.6,52.6h-1.7l2.7-9.4h2.4L352.6,52.6z"/>

</svg>