<svg version="1.1"
	 xmlns="http://www.w3.org/2000/svg" xmlns:xlink="http://www.w3.org/1999/xlink" xmlns:a="http://ns.adobe.com/AdobeSVGViewerExtensions/3.0/"
	 x="0px" y="0px" width="561.6px" height="138.7px" viewBox="0 0 561.6 138.7"
	 xml:space="preserve">
<style type="text/css">
	.st0{fill:#000000;}
	.st1{fill:#881719;}
</style>

		<path class="st0" d="M358,24.9c0-0.4-0.1-0.8-0.2-1.2c-0.3-0.8-0.9-1.4-1.7-1.7c-0.4-0.1-0.7-0.2-1.1-0.2c0,0-0.1,0-0.1,0
			c-0.1,0-0.1,0-0.2,0c-0.3,0-0.7,0.1-1,0.2c-0.3,0.1-0.6,0.3-0.9,0.6c0,0-0.1,0.1-0.2,0.1l-41,40.9l-41-40.9
			c-0.1-0.1-0.1-0.1-0.2-0.1c-0.3-0.2-0.5-0.4-0.8-0.6c-0.3-0.1-0.7-0.2-1.1-0.2c0,0-0.1,0-0.1,0c-0.1,0-0.1,0-0.2,0
			c-0.3,0-0.7,0.1-1,0.2c-0.8,0.3-1.4,0.9-1.7,1.7c-0.2,0.4-0.2,0.8-0.2,1.2c0,0,0,0,0,0v86.2c0,1.7,1.4,3.2,3.2,3.2
			c1.7,0,3.2-1.4,3.2-3.2V32.5l37.8,37.8c0.6,0.6,1.4,0.9,2.2,0.9c0.8,0,1.6-0.3,2.2-0.9l37.8-37.8v78.6c0,1.7,1.4,3.2,3.2,3.2
			c1.7,0,3.2-1.4,3.2-3.2L358,24.9C358,24.9,358,24.9,358,24.9z"/>
		<path class="st0" d="M138.4,21.7c-21.1,0-38.3,16.9-38.8,37.8c0,0.1-0.1,0.2-0.1,0.3v75.7c0,1.7,1.4,3.2,3.2,3.2
			c1.7,0,3.2-1.4,3.2-3.2V60.6c0-17.9,14.6-32.5,32.5-32.5c18,0,32.6,14.6,32.6,32.5c0,18-14.6,32.6-32.6,32.6
			c-1.7,0-3.2,1.4-3.2,3.2c0,1.7,1.4,3.2,3.2,3.2c21.4,0,38.9-17.4,38.9-38.9C177.3,39.2,159.9,21.7,138.4,21.7z"/>
		<path class="st0" d="M245.1,28.1c1.7,0,3.2-1.4,3.2-3.2c0-1.7-1.4-3.2-3.2-3.2h-48c-1.7,0-3.2,1.4-3.2,3.2v86.2
			c0,1.7,1.4,3.2,3.2,3.2h48c1.7,0,3.2-1.4,3.2-3.2c0-1.7-1.4-3.2-3.2-3.2h-44.8V71.2h44.8c1.7,0,3.2-1.4,3.2-3.2
			c0-1.7-1.4-3.2-3.2-3.2h-44.8V28.1H245.1z"/>
		<path class="st0" d="M45.2,23.6c-0.1-0.1-0.2-0.2-0.3-0.4c-0.1-0.2-0.2-0.4-0.4-0.5c-0.2-0.2-0.3-0.3-0.5-0.4
			c-0.1-0.1-0.2-0.2-0.4-0.3c0,0-0.1,0-0.1,0c-0.2-0.1-0.4-0.1-0.6-0.2c-0.2,0-0.4-0.1-0.5-0.1c-0.2,0-0.4,0.1-0.6,0.1
			c-0.2,0-0.4,0.1-0.6,0.2c0,0-0.1,0-0.1,0c-0.1,0.1-0.2,0.2-0.4,0.3c-0.2,0.1-0.4,0.2-0.5,0.4c-0.2,0.2-0.3,0.3-0.4,0.5
			c-0.1,0.1-0.2,0.2-0.3,0.4L0.3,109.9c-0.7,1.6,0,3.5,1.6,4.2c0.4,0.2,0.9,0.3,1.3,0.3c1.2,0,2.3-0.7,2.9-1.9l11.9-26.2h48.7
			l11.9,26.2c0.5,1.2,1.7,1.9,2.9,1.9c0.4,0,0.9-0.1,1.3-0.3c1.6-0.7,2.3-2.6,1.6-4.2L45.2,23.6z M20.8,79.9l21.5-47.4l21.5,47.4
			H20.8z"/>

	<path class="st1" d="M560.8,104.5L502.7,0.7c-0.2-0.3-0.4-0.5-0.7-0.7l12.4,91.7l-0.1,0c0.2,0.9,0.3,1.9,0.3,2.8
		c0,8.4-6.8,15.2-15.2,15.2c-8.4,0-15.2-6.8-15.2-15.2c0-8.4,6.8-15.2,15.2-15.2c3.1,0,5.9,0.9,8.3,2.5L496.8,0.2
		c-0.2,0.2-0.4,0.3-0.5,0.5l-58.1,103.8c-0.1,0.3-0.8,2-0.7,2.7c0.2,1.7,1.9,2.5,3.5,3.2c0.2,0.1,18,9.2,21.9,21.4
		c0.4,1.2,1.4,1.9,2.5,2.1v0.1h68.3V134c1.2-0.2,2.2-0.9,2.6-2.1c3.9-12.1,21.8-21.3,21.9-21.4c1.8-0.7,3.3-1.5,3.5-3.2
		C561.6,106.6,561,104.8,560.8,104.5z"/>

</svg>