<svg version="1.1"
	 xmlns="http://www.w3.org/2000/svg" xmlns:xlink="http://www.w3.org/1999/xlink"
	 x="0px" y="0px" width="358px" height="117px" viewBox="0 0 358 117" style="enable-background:new 0 0 358 117;"
	 xml:space="preserve">
<style type="text/css">
	.st0{fill:#000000;}
</style>
<g>
	<path class="st0" d="M358,3.1c0-0.4-0.1-0.8-0.2-1.2c-0.3-0.8-0.9-1.4-1.7-1.7C355.7,0.1,355.3,0,355,0c0,0-0.1,0-0.1,0
		c-0.1,0-0.1,0-0.2,0c-0.3,0-0.7,0.1-1,0.2c-0.3,0.1-0.6,0.3-0.9,0.6c0,0-0.1,0.1-0.2,0.1l-41,40.9l-41-40.9
		c-0.1-0.1-0.1-0.1-0.2-0.1c-0.3-0.2-0.5-0.4-0.8-0.6C269.4,0.1,269,0,268.6,0c0,0-0.1,0-0.1,0c-0.1,0-0.1,0-0.2,0
		c-0.3,0-0.7,0.1-1,0.2c-0.8,0.3-1.4,0.9-1.7,1.7c-0.2,0.4-0.2,0.8-0.2,1.2c0,0,0,0,0,0v86.2c0,1.7,1.4,3.2,3.2,3.2
		c1.7,0,3.2-1.4,3.2-3.2V10.8l37.8,37.8c0.6,0.6,1.4,0.9,2.2,0.9c0.8,0,1.6-0.3,2.2-0.9l37.8-37.8v78.6c0,1.7,1.4,3.2,3.2,3.2
		c1.7,0,3.2-1.4,3.2-3.2L358,3.1C358,3.1,358,3.1,358,3.1z"/>
	<path class="st0" d="M138.4,0c-21.1,0-38.3,16.9-38.8,37.8c0,0.1-0.1,0.2-0.1,0.3v75.7c0,1.7,1.4,3.2,3.2,3.2
		c1.7,0,3.2-1.4,3.2-3.2V38.9c0-17.9,14.6-32.5,32.5-32.5c18,0,32.6,14.6,32.6,32.5c0,18-14.6,32.6-32.6,32.6
		c-1.7,0-3.2,1.4-3.2,3.2c0,1.7,1.4,3.2,3.2,3.2c21.4,0,38.9-17.4,38.9-38.9C177.3,17.4,159.9,0,138.4,0z"/>
	<path class="st0" d="M245.1,6.3c1.7,0,3.2-1.4,3.2-3.2c0-1.7-1.4-3.2-3.2-3.2h-48c-1.7,0-3.2,1.4-3.2,3.2v86.2
		c0,1.7,1.4,3.2,3.2,3.2h48c1.7,0,3.2-1.4,3.2-3.2c0-1.7-1.4-3.2-3.2-3.2h-44.8V49.4h44.8c1.7,0,3.2-1.4,3.2-3.2
		c0-1.7-1.4-3.2-3.2-3.2h-44.8V6.3H245.1z"/>
	<path class="st0" d="M45.2,1.9c-0.1-0.1-0.2-0.2-0.3-0.4c-0.1-0.2-0.2-0.4-0.4-0.5c-0.2-0.2-0.3-0.3-0.5-0.4
		c-0.1-0.1-0.2-0.2-0.4-0.3c0,0-0.1,0-0.1,0c-0.2-0.1-0.4-0.1-0.6-0.2c-0.2,0-0.4-0.1-0.5-0.1c-0.2,0-0.4,0.1-0.6,0.1
		c-0.2,0-0.4,0.1-0.6,0.2c0,0-0.1,0-0.1,0c-0.1,0.1-0.2,0.2-0.4,0.3c-0.2,0.1-0.4,0.2-0.5,0.4c-0.2,0.2-0.3,0.3-0.4,0.5
		c-0.1,0.1-0.2,0.2-0.3,0.4L0.3,88.1c-0.7,1.6,0,3.5,1.6,4.2c0.4,0.2,0.9,0.3,1.3,0.3c1.2,0,2.3-0.7,2.9-1.9l11.9-26.2h48.7
		l11.9,26.2c0.5,1.2,1.7,1.9,2.9,1.9c0.4,0,0.9-0.1,1.3-0.3c1.6-0.7,2.3-2.6,1.6-4.2L45.2,1.9z M20.8,58.2l21.5-47.4l21.5,47.4H20.8
		z"/>
</g>
</svg>